<svg width="68" height="68" viewBox="0 0 68 68" fill="none" xmlns="http://www.w3.org/2000/svg">
<g id="24 / basic / user">
<path id="icon" fill-rule="evenodd" clip-rule="evenodd" d="M33.9999 65.1666C16.787 65.1666 2.83325 51.2129 2.83325 34C2.83325 16.7871 16.787 2.83331 33.9999 2.83331C51.2128 2.83331 65.1666 16.7871 65.1666 34C65.1666 51.2129 51.2128 65.1666 33.9999 65.1666ZM54.9652 48.5198C57.8243 44.3992 59.4999 39.3953 59.4999 34C59.4999 19.9167 48.0832 8.49998 33.9999 8.49998C19.9167 8.49998 8.49992 19.9167 8.49992 34C8.49992 39.3953 10.1755 44.3992 13.0347 48.5198C16.2235 44.3078 23.7166 42.5 33.9999 42.5C44.2832 42.5 51.7764 44.3078 54.9652 48.5198ZM50.8999 53.096C50.0706 50.1141 44.1132 48.1666 33.9999 48.1666C23.8867 48.1666 17.9293 50.1141 17.1 53.096C21.5993 57.0808 27.5171 59.5 33.9999 59.5C40.4828 59.5 46.4006 57.0808 50.8999 53.096ZM33.9999 17C27.1407 17 22.6666 21.9746 22.6666 28.3333C22.6666 38.0442 27.6557 42.5 33.9999 42.5C40.2845 42.5 45.3333 38.1922 45.3333 28.9C45.3333 22.4445 40.8401 17 33.9999 17ZM28.3333 28.3333C28.3333 34.7629 30.6515 36.8333 33.9999 36.8333C37.3368 36.8333 39.6666 34.8454 39.6666 28.9C39.6666 25.3595 37.4443 22.6666 33.9999 22.6666C30.4122 22.6666 28.3333 24.9782 28.3333 28.3333Z" fill="black"/>
</g>
</svg>
